G75*
%MOIN*%
%OFA0B0*%
%FSLAX24Y24*%
%IPPOS*%
%LPD*%
%AMOC8*
5,1,8,0,0,1.08239X$1,22.5*
%
%ADD10R,0.1600X0.0600*%
%ADD11C,0.0740*%
%ADD12C,0.0886*%
%ADD13C,0.0160*%
%ADD14C,0.0356*%
D10*
X001080Y002180D03*
X001080Y004180D03*
X018080Y004180D03*
X018080Y002180D03*
D11*
X013680Y005680D03*
X012680Y005680D03*
X012680Y006680D03*
X013680Y006680D03*
X013680Y007680D03*
X012680Y007680D03*
X017580Y007680D03*
X017580Y006680D03*
D12*
X017080Y004180D03*
X016080Y003180D03*
X015080Y002180D03*
X017080Y002180D03*
X015080Y004180D03*
X003780Y004180D03*
X001780Y004180D03*
X002780Y003180D03*
X001780Y002180D03*
X003780Y002180D03*
D13*
X000360Y001700D02*
X000360Y000360D01*
X018770Y000360D01*
X018770Y001700D01*
X018150Y001700D01*
X018150Y002110D01*
X018010Y002110D01*
X018010Y001700D01*
X017479Y001700D01*
X017406Y001647D01*
X017319Y001603D01*
X017226Y001572D01*
X017148Y001560D01*
X017148Y001758D01*
X017136Y001769D01*
X017112Y001811D01*
X017100Y001856D01*
X017100Y002110D01*
X017148Y002110D01*
X017148Y002112D01*
X017012Y002112D01*
X017012Y001560D01*
X016934Y001572D01*
X016841Y001603D01*
X016754Y001647D01*
X016674Y001705D01*
X016605Y001774D01*
X016547Y001854D01*
X016503Y001941D01*
X016472Y002034D01*
X016460Y002112D01*
X017012Y002112D01*
X017012Y002248D01*
X017012Y002800D01*
X016934Y002788D01*
X016841Y002757D01*
X016754Y002713D01*
X016674Y002655D01*
X016605Y002586D01*
X016547Y002506D01*
X016503Y002419D01*
X016472Y002326D01*
X016460Y002248D01*
X017012Y002248D01*
X017148Y002248D01*
X017148Y002250D01*
X017100Y002250D01*
X017100Y002504D01*
X017112Y002549D01*
X017136Y002591D01*
X017148Y002602D01*
X017148Y002800D01*
X017226Y002788D01*
X017319Y002757D01*
X017406Y002713D01*
X017479Y002660D01*
X018010Y002660D01*
X018010Y002250D01*
X018150Y002250D01*
X018150Y002660D01*
X018770Y002660D01*
X018770Y003700D01*
X018150Y003700D01*
X018150Y004110D01*
X018010Y004110D01*
X018010Y003700D01*
X017479Y003700D01*
X017406Y003647D01*
X017319Y003603D01*
X017226Y003572D01*
X017148Y003560D01*
X017148Y003758D01*
X017136Y003769D01*
X017112Y003811D01*
X017100Y003856D01*
X017100Y004110D01*
X017148Y004110D01*
X017148Y004112D01*
X017012Y004112D01*
X017012Y003560D01*
X016934Y003572D01*
X016841Y003603D01*
X016754Y003647D01*
X016674Y003705D01*
X016605Y003774D01*
X016547Y003854D01*
X016503Y003941D01*
X016472Y004034D01*
X016460Y004112D01*
X017012Y004112D01*
X017012Y004248D01*
X016460Y004248D01*
X016472Y004326D01*
X016503Y004419D01*
X016547Y004506D01*
X016605Y004586D01*
X016674Y004655D01*
X016754Y004713D01*
X016841Y004757D01*
X016934Y004788D01*
X017012Y004800D01*
X017012Y004248D01*
X017148Y004248D01*
X017148Y004250D01*
X017100Y004250D01*
X017100Y004504D01*
X017112Y004549D01*
X017136Y004591D01*
X017148Y004602D01*
X017148Y004800D01*
X017226Y004788D01*
X017319Y004757D01*
X017406Y004713D01*
X017479Y004660D01*
X018010Y004660D01*
X018010Y004250D01*
X018150Y004250D01*
X018150Y004660D01*
X018770Y004660D01*
X018770Y008596D01*
X000360Y008596D01*
X000360Y004660D01*
X001010Y004660D01*
X001010Y004250D01*
X001150Y004250D01*
X001150Y004660D01*
X001381Y004660D01*
X001454Y004713D01*
X001541Y004757D01*
X001634Y004788D01*
X001712Y004800D01*
X001712Y004660D01*
X001848Y004660D01*
X001848Y004800D01*
X001926Y004788D01*
X002019Y004757D01*
X002106Y004713D01*
X002186Y004655D01*
X002255Y004586D01*
X002313Y004506D01*
X002357Y004419D01*
X002388Y004326D01*
X002400Y004248D01*
X001848Y004248D01*
X001848Y004112D01*
X002400Y004112D01*
X002388Y004034D01*
X002357Y003941D01*
X002313Y003854D01*
X002255Y003774D01*
X002186Y003705D01*
X002106Y003647D01*
X002019Y003603D01*
X001926Y003572D01*
X001848Y003560D01*
X001848Y003700D01*
X001712Y003700D01*
X001712Y003560D01*
X001634Y003572D01*
X001541Y003603D01*
X001454Y003647D01*
X001381Y003700D01*
X001150Y003700D01*
X001150Y004110D01*
X001150Y004250D01*
X001160Y004250D01*
X001160Y004248D01*
X001712Y004248D01*
X001712Y004112D01*
X001160Y004112D01*
X001160Y004110D01*
X001150Y004110D01*
X001010Y004110D01*
X001010Y003700D01*
X000360Y003700D01*
X000360Y002660D01*
X001010Y002660D01*
X001010Y002250D01*
X001150Y002250D01*
X001150Y002660D01*
X001381Y002660D01*
X001454Y002713D01*
X001541Y002757D01*
X001634Y002788D01*
X001712Y002800D01*
X001712Y002660D01*
X001848Y002660D01*
X001848Y002800D01*
X001926Y002788D01*
X002019Y002757D01*
X002106Y002713D01*
X002186Y002655D01*
X002255Y002586D01*
X002313Y002506D01*
X002357Y002419D01*
X002388Y002326D01*
X002400Y002248D01*
X001848Y002248D01*
X001848Y002112D01*
X002400Y002112D01*
X002388Y002034D01*
X002357Y001941D01*
X002313Y001854D01*
X002255Y001774D01*
X002186Y001705D01*
X002106Y001647D01*
X002019Y001603D01*
X001926Y001572D01*
X001848Y001560D01*
X001848Y001700D01*
X001712Y001700D01*
X001712Y001560D01*
X001634Y001572D01*
X001541Y001603D01*
X001454Y001647D01*
X001381Y001700D01*
X001150Y001700D01*
X001150Y002110D01*
X001150Y002250D01*
X001160Y002250D01*
X001160Y002248D01*
X001712Y002248D01*
X001712Y002112D01*
X001160Y002112D01*
X001160Y002110D01*
X001150Y002110D01*
X001010Y002110D01*
X001010Y001700D01*
X000360Y001700D01*
X000360Y001607D02*
X001533Y001607D01*
X001712Y001607D02*
X001848Y001607D01*
X002027Y001607D02*
X003533Y001607D01*
X003541Y001603D02*
X003634Y001572D01*
X003712Y001560D01*
X003712Y002112D01*
X003160Y002112D01*
X003172Y002034D01*
X003203Y001941D01*
X003247Y001854D01*
X003305Y001774D01*
X003374Y001705D01*
X003454Y001647D01*
X003541Y001603D01*
X003712Y001607D02*
X003848Y001607D01*
X003848Y001560D02*
X003926Y001572D01*
X004019Y001603D01*
X004106Y001647D01*
X004186Y001705D01*
X004255Y001774D01*
X004313Y001854D01*
X004357Y001941D01*
X004388Y002034D01*
X004400Y002112D01*
X003848Y002112D01*
X003848Y002248D01*
X003712Y002248D01*
X003712Y002112D01*
X003848Y002112D01*
X003848Y001560D01*
X004027Y001607D02*
X014833Y001607D01*
X014841Y001603D02*
X014934Y001572D01*
X015012Y001560D01*
X015012Y002112D01*
X015148Y002112D01*
X015148Y002248D01*
X015700Y002248D01*
X015688Y002326D01*
X015657Y002419D01*
X015613Y002506D01*
X015555Y002586D01*
X015486Y002655D01*
X015406Y002713D01*
X015319Y002757D01*
X015226Y002788D01*
X015148Y002800D01*
X015148Y002248D01*
X015012Y002248D01*
X015012Y002112D01*
X014460Y002112D01*
X014472Y002034D01*
X014503Y001941D01*
X014547Y001854D01*
X014605Y001774D01*
X014674Y001705D01*
X014754Y001647D01*
X014841Y001603D01*
X015012Y001607D02*
X015148Y001607D01*
X015148Y001560D02*
X015226Y001572D01*
X015319Y001603D01*
X015406Y001647D01*
X015486Y001705D01*
X015555Y001774D01*
X015613Y001854D01*
X015657Y001941D01*
X015688Y002034D01*
X015700Y002112D01*
X015148Y002112D01*
X015148Y001560D01*
X015327Y001607D02*
X016833Y001607D01*
X017012Y001607D02*
X017148Y001607D01*
X017327Y001607D02*
X018770Y001607D01*
X018770Y001448D02*
X000360Y001448D01*
X000360Y001290D02*
X018770Y001290D01*
X018770Y001131D02*
X000360Y001131D01*
X000360Y000973D02*
X018770Y000973D01*
X018770Y000814D02*
X000360Y000814D01*
X000360Y000656D02*
X018770Y000656D01*
X018770Y000497D02*
X000360Y000497D01*
X001010Y001765D02*
X001150Y001765D01*
X001150Y001924D02*
X001010Y001924D01*
X001010Y002082D02*
X001150Y002082D01*
X001150Y002241D02*
X001712Y002241D01*
X001848Y002241D02*
X003712Y002241D01*
X003712Y002248D02*
X003160Y002248D01*
X003172Y002326D01*
X003203Y002419D01*
X003247Y002506D01*
X003305Y002586D01*
X003374Y002655D01*
X003454Y002713D01*
X003541Y002757D01*
X003634Y002788D01*
X003712Y002800D01*
X003712Y002248D01*
X003848Y002248D02*
X003848Y002800D01*
X003926Y002788D01*
X004019Y002757D01*
X004106Y002713D01*
X004186Y002655D01*
X004255Y002586D01*
X004313Y002506D01*
X004357Y002419D01*
X004388Y002326D01*
X004400Y002248D01*
X003848Y002248D01*
X003848Y002241D02*
X015012Y002241D01*
X015012Y002248D02*
X014460Y002248D01*
X014472Y002326D01*
X014503Y002419D01*
X014547Y002506D01*
X014605Y002586D01*
X014674Y002655D01*
X014754Y002713D01*
X014841Y002757D01*
X014934Y002788D01*
X015012Y002800D01*
X015012Y002248D01*
X015148Y002241D02*
X017012Y002241D01*
X017148Y002241D02*
X018010Y002241D01*
X018010Y002250D02*
X018010Y002110D01*
X017700Y002110D01*
X017700Y002112D01*
X017148Y002112D01*
X017148Y002248D01*
X017700Y002248D01*
X017700Y002250D01*
X018010Y002250D01*
X018010Y002399D02*
X018150Y002399D01*
X018150Y002558D02*
X018010Y002558D01*
X017400Y002716D02*
X018770Y002716D01*
X018770Y002875D02*
X016584Y002875D01*
X016574Y002850D02*
X016663Y003064D01*
X016663Y003296D01*
X016574Y003510D01*
X016410Y003674D01*
X016196Y003763D01*
X015964Y003763D01*
X015750Y003674D01*
X015586Y003510D01*
X015497Y003296D01*
X015497Y003064D01*
X015586Y002850D01*
X015750Y002686D01*
X015964Y002597D01*
X016196Y002597D01*
X016410Y002686D01*
X016574Y002850D01*
X016440Y002716D02*
X016760Y002716D01*
X017012Y002716D02*
X017148Y002716D01*
X017117Y002558D02*
X017012Y002558D01*
X017012Y002399D02*
X017100Y002399D01*
X017100Y002082D02*
X017012Y002082D01*
X017012Y001924D02*
X017100Y001924D01*
X017140Y001765D02*
X017012Y001765D01*
X016614Y001765D02*
X015546Y001765D01*
X015648Y001924D02*
X016512Y001924D01*
X016465Y002082D02*
X015695Y002082D01*
X015148Y002082D02*
X015012Y002082D01*
X015012Y001924D02*
X015148Y001924D01*
X015148Y001765D02*
X015012Y001765D01*
X014614Y001765D02*
X004246Y001765D01*
X004348Y001924D02*
X014512Y001924D01*
X014465Y002082D02*
X004395Y002082D01*
X003848Y002082D02*
X003712Y002082D01*
X003712Y001924D02*
X003848Y001924D01*
X003848Y001765D02*
X003712Y001765D01*
X003314Y001765D02*
X002246Y001765D01*
X002348Y001924D02*
X003212Y001924D01*
X003165Y002082D02*
X002395Y002082D01*
X002364Y002399D02*
X003196Y002399D01*
X003284Y002558D02*
X002276Y002558D01*
X002450Y002686D02*
X002664Y002597D01*
X002896Y002597D01*
X003110Y002686D01*
X003274Y002850D01*
X003363Y003064D01*
X003363Y003296D01*
X003274Y003510D01*
X003110Y003674D01*
X002896Y003763D01*
X002664Y003763D01*
X002450Y003674D01*
X002286Y003510D01*
X002197Y003296D01*
X002197Y003064D01*
X002286Y002850D01*
X002450Y002686D01*
X002420Y002716D02*
X002100Y002716D01*
X001848Y002716D02*
X001712Y002716D01*
X001460Y002716D02*
X000360Y002716D01*
X000360Y002875D02*
X002276Y002875D01*
X002210Y003033D02*
X000360Y003033D01*
X000360Y003192D02*
X002197Y003192D01*
X002219Y003350D02*
X000360Y003350D01*
X000360Y003509D02*
X002285Y003509D01*
X002134Y003667D02*
X002443Y003667D01*
X002292Y003826D02*
X003268Y003826D01*
X003247Y003854D02*
X003305Y003774D01*
X003374Y003705D01*
X003454Y003647D01*
X003541Y003603D01*
X003634Y003572D01*
X003712Y003560D01*
X003712Y004112D01*
X003160Y004112D01*
X003172Y004034D01*
X003203Y003941D01*
X003247Y003854D01*
X003189Y003984D02*
X002371Y003984D01*
X001848Y004143D02*
X003712Y004143D01*
X003712Y004112D02*
X003712Y004248D01*
X003160Y004248D01*
X003172Y004326D01*
X003203Y004419D01*
X003247Y004506D01*
X003305Y004586D01*
X003374Y004655D01*
X003454Y004713D01*
X003541Y004757D01*
X003634Y004788D01*
X003712Y004800D01*
X003712Y004248D01*
X003848Y004248D01*
X003848Y004800D01*
X003926Y004788D01*
X004019Y004757D01*
X004106Y004713D01*
X004186Y004655D01*
X004255Y004586D01*
X004313Y004506D01*
X004357Y004419D01*
X004388Y004326D01*
X004400Y004248D01*
X003848Y004248D01*
X003848Y004112D01*
X004400Y004112D01*
X004388Y004034D01*
X004357Y003941D01*
X004313Y003854D01*
X004255Y003774D01*
X004186Y003705D01*
X004106Y003647D01*
X004019Y003603D01*
X003926Y003572D01*
X003848Y003560D01*
X003848Y004112D01*
X003712Y004112D01*
X003712Y003984D02*
X003848Y003984D01*
X003848Y003826D02*
X003712Y003826D01*
X003712Y003667D02*
X003848Y003667D01*
X004134Y003667D02*
X014726Y003667D01*
X014754Y003647D02*
X014674Y003705D01*
X014605Y003774D01*
X014547Y003854D01*
X014503Y003941D01*
X014472Y004034D01*
X014460Y004112D01*
X015012Y004112D01*
X015148Y004112D01*
X015148Y004248D01*
X015700Y004248D01*
X015688Y004326D01*
X015657Y004419D01*
X015613Y004506D01*
X015555Y004586D01*
X015486Y004655D01*
X015406Y004713D01*
X015319Y004757D01*
X015226Y004788D01*
X015148Y004800D01*
X015148Y004248D01*
X015012Y004248D01*
X015012Y004112D01*
X015012Y003560D01*
X014934Y003572D01*
X014841Y003603D01*
X014754Y003647D01*
X015012Y003667D02*
X015148Y003667D01*
X015148Y003560D02*
X015226Y003572D01*
X015319Y003603D01*
X015406Y003647D01*
X015486Y003705D01*
X015555Y003774D01*
X015613Y003854D01*
X015657Y003941D01*
X015688Y004034D01*
X015700Y004112D01*
X015148Y004112D01*
X015148Y003560D01*
X015434Y003667D02*
X015743Y003667D01*
X015585Y003509D02*
X003275Y003509D01*
X003426Y003667D02*
X003117Y003667D01*
X003341Y003350D02*
X015519Y003350D01*
X015497Y003192D02*
X003363Y003192D01*
X003350Y003033D02*
X015510Y003033D01*
X015576Y002875D02*
X003284Y002875D01*
X003140Y002716D02*
X003460Y002716D01*
X003712Y002716D02*
X003848Y002716D01*
X004100Y002716D02*
X014760Y002716D01*
X015012Y002716D02*
X015148Y002716D01*
X015400Y002716D02*
X015720Y002716D01*
X015576Y002558D02*
X016584Y002558D01*
X016496Y002399D02*
X015664Y002399D01*
X015148Y002399D02*
X015012Y002399D01*
X015012Y002558D02*
X015148Y002558D01*
X014584Y002558D02*
X004276Y002558D01*
X004364Y002399D02*
X014496Y002399D01*
X016650Y003033D02*
X018770Y003033D01*
X018770Y003192D02*
X016663Y003192D01*
X016641Y003350D02*
X018770Y003350D01*
X018770Y003509D02*
X016575Y003509D01*
X016726Y003667D02*
X016417Y003667D01*
X016568Y003826D02*
X015592Y003826D01*
X015671Y003984D02*
X016489Y003984D01*
X017012Y003984D02*
X017100Y003984D01*
X017148Y004112D02*
X017148Y004248D01*
X017700Y004248D01*
X017700Y004250D01*
X018010Y004250D01*
X018010Y004110D01*
X017700Y004110D01*
X017700Y004112D01*
X017148Y004112D01*
X017148Y004143D02*
X018010Y004143D01*
X018010Y004301D02*
X018150Y004301D01*
X018150Y004460D02*
X018010Y004460D01*
X018010Y004618D02*
X018150Y004618D01*
X018770Y004777D02*
X017260Y004777D01*
X017148Y004777D02*
X017012Y004777D01*
X016900Y004777D02*
X015260Y004777D01*
X015148Y004777D02*
X015012Y004777D01*
X015012Y004800D02*
X014934Y004788D01*
X014841Y004757D01*
X014754Y004713D01*
X014674Y004655D01*
X014605Y004586D01*
X014547Y004506D01*
X014503Y004419D01*
X014472Y004326D01*
X014460Y004248D01*
X015012Y004248D01*
X015012Y004800D01*
X014900Y004777D02*
X003960Y004777D01*
X003848Y004777D02*
X003712Y004777D01*
X003600Y004777D02*
X001960Y004777D01*
X001848Y004777D02*
X001712Y004777D01*
X001600Y004777D02*
X000360Y004777D01*
X000360Y004935D02*
X018770Y004935D01*
X018770Y005094D02*
X000360Y005094D01*
X000360Y005252D02*
X012387Y005252D01*
X012391Y005248D02*
X012579Y005170D01*
X012781Y005170D01*
X012969Y005248D01*
X013112Y005391D01*
X013180Y005554D01*
X013248Y005391D01*
X013391Y005248D01*
X013579Y005170D01*
X013781Y005170D01*
X013969Y005248D01*
X014112Y005391D01*
X014190Y005579D01*
X014190Y005781D01*
X014112Y005969D01*
X013969Y006112D01*
X013806Y006180D01*
X013969Y006248D01*
X014112Y006391D01*
X014190Y006579D01*
X014190Y006781D01*
X014112Y006969D01*
X013969Y007112D01*
X013806Y007180D01*
X013969Y007248D01*
X014112Y007391D01*
X014190Y007579D01*
X014190Y007781D01*
X014112Y007969D01*
X013969Y008112D01*
X013781Y008190D01*
X013579Y008190D01*
X013391Y008112D01*
X013248Y007969D01*
X013180Y007806D01*
X013112Y007969D01*
X012969Y008112D01*
X012781Y008190D01*
X012579Y008190D01*
X012391Y008112D01*
X012248Y007969D01*
X012170Y007781D01*
X012170Y007579D01*
X012248Y007391D01*
X012391Y007248D01*
X012554Y007180D01*
X012391Y007112D01*
X012248Y006969D01*
X012170Y006781D01*
X012170Y006579D01*
X012248Y006391D01*
X012391Y006248D01*
X012554Y006180D01*
X012391Y006112D01*
X012248Y005969D01*
X012170Y005781D01*
X012170Y005579D01*
X012248Y005391D01*
X012391Y005248D01*
X012240Y005411D02*
X000360Y005411D01*
X000360Y005569D02*
X012174Y005569D01*
X012170Y005728D02*
X000360Y005728D01*
X000360Y005886D02*
X012213Y005886D01*
X012323Y006045D02*
X000360Y006045D01*
X000360Y006203D02*
X012499Y006203D01*
X012277Y006362D02*
X000360Y006362D01*
X000360Y006520D02*
X012194Y006520D01*
X012170Y006679D02*
X000360Y006679D01*
X000360Y006837D02*
X012193Y006837D01*
X012274Y006996D02*
X000360Y006996D01*
X000360Y007154D02*
X012492Y007154D01*
X012326Y007313D02*
X000360Y007313D01*
X000360Y007471D02*
X012215Y007471D01*
X012170Y007630D02*
X000360Y007630D01*
X000360Y007788D02*
X012173Y007788D01*
X012238Y007947D02*
X000360Y007947D01*
X000360Y008105D02*
X012384Y008105D01*
X012976Y008105D02*
X013384Y008105D01*
X013238Y007947D02*
X013122Y007947D01*
X013976Y008105D02*
X017284Y008105D01*
X017291Y008112D02*
X017148Y007969D01*
X017070Y007781D01*
X017070Y007579D01*
X017148Y007391D01*
X017291Y007248D01*
X017404Y007201D01*
X017369Y007190D01*
X017292Y007150D01*
X017222Y007100D01*
X017160Y007038D01*
X017110Y006968D01*
X017070Y006891D01*
X017044Y006809D01*
X017030Y006723D01*
X017030Y006700D01*
X017560Y006700D01*
X017560Y006660D01*
X017600Y006660D01*
X017600Y006700D01*
X018130Y006700D01*
X018130Y006723D01*
X018116Y006809D01*
X018090Y006891D01*
X018050Y006968D01*
X018000Y007038D01*
X017938Y007100D01*
X017868Y007150D01*
X017791Y007190D01*
X017756Y007201D01*
X017869Y007248D01*
X018012Y007391D01*
X018090Y007579D01*
X018090Y007781D01*
X018012Y007969D01*
X017869Y008112D01*
X017681Y008190D01*
X017479Y008190D01*
X017291Y008112D01*
X017138Y007947D02*
X014122Y007947D01*
X014187Y007788D02*
X017073Y007788D01*
X017070Y007630D02*
X014190Y007630D01*
X014145Y007471D02*
X017115Y007471D01*
X017226Y007313D02*
X014034Y007313D01*
X013868Y007154D02*
X017299Y007154D01*
X017129Y006996D02*
X014086Y006996D01*
X014167Y006837D02*
X017053Y006837D01*
X017030Y006660D02*
X017030Y006637D01*
X017044Y006551D01*
X017070Y006469D01*
X017110Y006392D01*
X017160Y006322D01*
X017222Y006260D01*
X017292Y006210D01*
X017369Y006170D01*
X017451Y006144D01*
X017537Y006130D01*
X017560Y006130D01*
X017560Y006660D01*
X017030Y006660D01*
X017054Y006520D02*
X014166Y006520D01*
X014190Y006679D02*
X017560Y006679D01*
X017600Y006679D02*
X018770Y006679D01*
X018770Y006837D02*
X018107Y006837D01*
X018031Y006996D02*
X018770Y006996D01*
X018770Y007154D02*
X017861Y007154D01*
X017934Y007313D02*
X018770Y007313D01*
X018770Y007471D02*
X018045Y007471D01*
X018090Y007630D02*
X018770Y007630D01*
X018770Y007788D02*
X018087Y007788D01*
X018022Y007947D02*
X018770Y007947D01*
X018770Y008105D02*
X017876Y008105D01*
X018770Y008264D02*
X000360Y008264D01*
X000360Y008422D02*
X018770Y008422D01*
X018770Y008581D02*
X000360Y008581D01*
X001010Y004618D02*
X001150Y004618D01*
X001150Y004460D02*
X001010Y004460D01*
X001010Y004301D02*
X001150Y004301D01*
X001150Y004143D02*
X001712Y004143D01*
X001150Y003984D02*
X001010Y003984D01*
X001010Y003826D02*
X001150Y003826D01*
X001426Y003667D02*
X000360Y003667D01*
X001712Y003667D02*
X001848Y003667D01*
X002392Y004301D02*
X003168Y004301D01*
X003223Y004460D02*
X002337Y004460D01*
X002223Y004618D02*
X003337Y004618D01*
X003712Y004618D02*
X003848Y004618D01*
X003848Y004460D02*
X003712Y004460D01*
X003712Y004301D02*
X003848Y004301D01*
X003848Y004143D02*
X015012Y004143D01*
X015148Y004143D02*
X017012Y004143D01*
X017012Y004301D02*
X017100Y004301D01*
X017100Y004460D02*
X017012Y004460D01*
X017012Y004618D02*
X017148Y004618D01*
X016637Y004618D02*
X015523Y004618D01*
X015637Y004460D02*
X016523Y004460D01*
X016468Y004301D02*
X015692Y004301D01*
X015148Y004301D02*
X015012Y004301D01*
X015012Y004460D02*
X015148Y004460D01*
X015148Y004618D02*
X015012Y004618D01*
X014637Y004618D02*
X004223Y004618D01*
X004337Y004460D02*
X014523Y004460D01*
X014468Y004301D02*
X004392Y004301D01*
X004371Y003984D02*
X014489Y003984D01*
X014568Y003826D02*
X004292Y003826D01*
X003848Y002558D02*
X003712Y002558D01*
X003712Y002399D02*
X003848Y002399D01*
X001150Y002399D02*
X001010Y002399D01*
X001010Y002558D02*
X001150Y002558D01*
X012973Y005252D02*
X013387Y005252D01*
X013240Y005411D02*
X013120Y005411D01*
X013973Y005252D02*
X018770Y005252D01*
X018770Y005411D02*
X014120Y005411D01*
X014186Y005569D02*
X018770Y005569D01*
X018770Y005728D02*
X014190Y005728D01*
X014147Y005886D02*
X018770Y005886D01*
X018770Y006045D02*
X014037Y006045D01*
X013861Y006203D02*
X017305Y006203D01*
X017132Y006362D02*
X014083Y006362D01*
X017560Y006362D02*
X017600Y006362D01*
X017600Y006520D02*
X017560Y006520D01*
X017600Y006660D02*
X017600Y006130D01*
X017623Y006130D01*
X017709Y006144D01*
X017791Y006170D01*
X017868Y006210D01*
X017938Y006260D01*
X018000Y006322D01*
X018050Y006392D01*
X018090Y006469D01*
X018116Y006551D01*
X018130Y006637D01*
X018130Y006660D01*
X017600Y006660D01*
X018106Y006520D02*
X018770Y006520D01*
X018770Y006362D02*
X018028Y006362D01*
X017855Y006203D02*
X018770Y006203D01*
X017600Y006203D02*
X017560Y006203D01*
X018010Y003984D02*
X018150Y003984D01*
X018150Y003826D02*
X018010Y003826D01*
X017434Y003667D02*
X018770Y003667D01*
X017148Y003667D02*
X017012Y003667D01*
X017012Y003826D02*
X017108Y003826D01*
X015148Y003826D02*
X015012Y003826D01*
X015012Y003984D02*
X015148Y003984D01*
X018010Y002082D02*
X018150Y002082D01*
X018150Y001924D02*
X018010Y001924D01*
X018010Y001765D02*
X018150Y001765D01*
D14*
X018280Y001480D03*
X017680Y001480D03*
X017080Y001480D03*
X016480Y001480D03*
X015880Y001480D03*
X015380Y001480D03*
X014730Y001480D03*
X014130Y001480D03*
X013530Y001480D03*
X012880Y001480D03*
X012280Y001480D03*
X011680Y001480D03*
X011080Y001480D03*
X010480Y001480D03*
X009880Y001480D03*
X009280Y001480D03*
X008680Y001480D03*
X008080Y001480D03*
X007480Y001480D03*
X006880Y001480D03*
X006280Y001480D03*
X005680Y001480D03*
X005080Y001480D03*
X004480Y001480D03*
X003880Y001480D03*
X003280Y001480D03*
X002680Y001480D03*
X002080Y001480D03*
X001480Y001480D03*
X000880Y001480D03*
X005330Y002580D03*
X005980Y003780D03*
X005680Y004880D03*
X005080Y004880D03*
X004480Y004880D03*
X003880Y004880D03*
X003280Y004880D03*
X002680Y004880D03*
X002080Y004880D03*
X001480Y004880D03*
X000880Y004880D03*
X005080Y005680D03*
X006280Y004880D03*
X007480Y004880D03*
X008130Y004880D03*
X008830Y004880D03*
X009530Y004880D03*
X010230Y004880D03*
X010880Y004880D03*
X011530Y004880D03*
X012180Y004880D03*
X012830Y004880D03*
X013980Y005030D03*
X015280Y004880D03*
X015880Y004880D03*
X016480Y004880D03*
X017080Y004880D03*
X017680Y004880D03*
X018280Y004880D03*
X015780Y006430D03*
X014680Y006380D03*
X012080Y006180D03*
X010430Y006180D03*
X012080Y007180D03*
X011530Y007480D03*
X008680Y007230D03*
X006930Y007530D03*
X005130Y007480D03*
X006880Y005630D03*
X010930Y003980D03*
X011830Y003980D03*
X011830Y002380D03*
X010930Y002380D03*
M02*
