%
M48
M72
T01C0.0236
T02C0.0400
T03C0.0591
%
T01
X880Y1480
X1480Y1480
X2080Y1480
X2680Y1480
X3280Y1480
X3880Y1480
X4480Y1480
X5080Y1480
X5680Y1480
X6280Y1480
X6880Y1480
X7480Y1480
X8080Y1480
X8680Y1480
X9280Y1480
X9880Y1480
X10380Y1080
X10980Y1080
X11580Y1080
X12180Y1080
X12780Y1080
X13380Y1080
X13980Y1080
X14580Y1080
X15230Y1280
X15880Y1480
X16480Y1480
X17080Y1480
X17680Y1480
X18280Y1480
X12880Y3630
X13280Y4480
X12830Y4880
X12180Y4880
X11530Y4880
X10880Y4880
X10230Y4880
X9530Y4880
X8830Y4880
X8130Y4880
X7480Y4880
X6280Y4880
X5680Y4880
X5080Y4880
X4480Y4880
X3880Y4880
X3280Y4880
X2680Y4880
X2080Y4880
X1480Y4880
X880Y4880
X5080Y5680
X6880Y5630
X8680Y7230
X6930Y7530
X5130Y7480
X10430Y6180
X12080Y6180
X12080Y7180
X11530Y7480
X14680Y6380
X15780Y6430
X13980Y5030
X15280Y4880
X15880Y4880
X16480Y4880
X17080Y4880
X17680Y4880
X18280Y4880
X11180Y2680
X5980Y3780
X5330Y2580
T02
X12680Y5680
X13680Y5680
X13680Y6680
X12680Y6680
X12680Y7680
X13680Y7680
X17580Y7680
X17580Y6680
T03
X17080Y4180
X16080Y3180
X15080Y2180
X17080Y2180
X15080Y4180
X3780Y4180
X1780Y4180
X2780Y3180
X1780Y2180
X3780Y2180
M30
