G75*
%MOIN*%
%OFA0B0*%
%FSLAX24Y24*%
%IPPOS*%
%LPD*%
%AMOC8*
5,1,8,0,0,1.08239X$1,22.5*
%
%ADD10R,1.8750X0.0450*%
%ADD11R,0.0820X0.0260*%
%ADD12R,0.1640X0.0640*%
%ADD13R,0.0473X0.0434*%
%ADD14R,0.0434X0.0473*%
%ADD15R,0.0512X0.0355*%
%ADD16R,0.0355X0.0512*%
%ADD17R,0.0355X0.0394*%
%ADD18R,0.0355X0.0276*%
%ADD19C,0.0780*%
%ADD20R,0.0355X0.0670*%
%ADD21C,0.0926*%
%ADD22R,0.0394X0.0316*%
%ADD23R,0.0355X0.0355*%
D10*
X009555Y000405D03*
X009555Y008555D03*
D11*
X009650Y007430D03*
X009650Y006930D03*
X009650Y006430D03*
X009650Y005930D03*
X007710Y005930D03*
X007710Y006430D03*
X007710Y006930D03*
X007710Y007430D03*
D12*
X001080Y002180D03*
X001080Y003180D03*
X001080Y004180D03*
X018080Y004180D03*
X018080Y003180D03*
X018080Y002180D03*
D13*
X009215Y003180D03*
X008545Y003180D03*
X008015Y003180D03*
X007345Y003180D03*
X004615Y003180D03*
X003945Y003180D03*
X005645Y005630D03*
X006315Y005630D03*
D14*
X013180Y003015D03*
X013980Y003015D03*
X013980Y002345D03*
X013180Y002345D03*
X014680Y005145D03*
X014680Y005815D03*
X014680Y006945D03*
X014680Y007615D03*
D15*
X015780Y007684D03*
X015780Y006976D03*
X013980Y004434D03*
X013980Y003726D03*
X012483Y003180D03*
X012483Y002180D03*
X009877Y002180D03*
X009877Y003180D03*
X006880Y003826D03*
X006880Y004534D03*
D16*
X010680Y003680D03*
X011180Y003680D03*
X011680Y003680D03*
X011680Y001680D03*
X011180Y001680D03*
X011034Y007480D03*
X010326Y007480D03*
D17*
X006034Y003377D03*
D18*
X005326Y003436D03*
X005326Y002924D03*
X006034Y002924D03*
D19*
X012680Y005680D03*
X013680Y005680D03*
X013680Y006680D03*
X012680Y006680D03*
X012680Y007680D03*
X013680Y007680D03*
X017580Y007680D03*
X017580Y006680D03*
D20*
X010680Y001759D03*
D21*
X015080Y002180D03*
X016080Y003180D03*
X015080Y004180D03*
X017080Y004180D03*
X017080Y002180D03*
X003780Y002180D03*
X001780Y002180D03*
X002780Y003180D03*
X001780Y004180D03*
X003780Y004180D03*
D22*
X006630Y006374D03*
X006630Y006886D03*
D23*
X006275Y007430D03*
X005685Y007430D03*
M02*
